<svg id="AAlogo" xmlns="http://www.w3.org/2000/svg" width="124.725" height="85" viewBox="0 0 124.725 85">
        <path id="Path_1" data-name="Path 1" d="M266.357,286.63c-.057-8.155,10.227-13.46,23.683-13.46,13.484,0,28.168,4.762,28.168,23.355v16.283c0,3.394,1.543,5.618,4.514,5.618,2.943,0,4.485-2.224,4.485-5.618V273.17h2.771v39.638c0,3.422,1.6,5.618,4.514,5.618,2.885,0,4.6-2.224,4.571-5.618-.086-9.582-.086,2.31-.086-16.283s14.712-23.355,28.111-23.355c13.427,0,23.74,5.447,23.74,13.46-.029,3.023-1.743,7.244-8.142,7.9-15,1.568-15-14.886-6-16.2a22.451,22.451,0,0,0-16.426,1.255c-6.828,3.308-6.571,12.947-6.571,16.939v16.283c0,14.173-20.854,14.173-25.111,7.614-4.256,6.559-25.054,6.559-25.054-7.614V296.525c0-3.992.286-13.631-6.6-16.939a22.112,22.112,0,0,0-16.37-1.255c8.942,1.312,8.942,17.766-6.028,16.2C268.128,293.873,266.357,289.653,266.357,286.63Z" transform="translate(-266.103 -239.658)" fill="#005140"/>
        <path id="Path_2" data-name="Path 2" d="M454.462,245.477c3.371-3.536,6.028-9.724,13.884-7.871-2.143-6.473-16.969-10.123-24.054-5.276-7.056,4.876-6.456,9.867-3.914,13.546S448.549,251.665,454.462,245.477Z" transform="translate(-370.019 -213.648)" fill="#00904a"/>
        <path id="Path_3" data-name="Path 3" d="M347.858,241.024c-1.286-6.074-4.4-9.781-12.741-8.5,6.856-8.1,20.512-7.785,25.683-1.226s2.885,12.063-.543,14.743S349.173,247.1,347.858,241.024Z" transform="translate(-307.581 -211.419)" fill="#00904a"/>
        <path id="Path_4" data-name="Path 4" d="M406.9,201.339c1.457-4.876,6.2-7.956,3.342-12.776,8.685-.228,12.856,8.327,11.656,15.057-1.228,6.759-6.285,8.213-9.77,7.586C408.613,210.578,405.528,205.987,406.9,201.339Z" transform="translate(-350.681 -188.559)" fill="#00904a"/>
        <path id="Path_5" data-name="Path 5" d="M418.612,251.714a3.037,3.037,0,1,1-3,3.023A3.052,3.052,0,0,1,418.612,251.714Z" transform="translate(-356.138 -226.7)" fill="#dc2f34"/>
        <path id="Path_6" data-name="Path 6" d="M298.482,319.034c.229,1.226.457,2.909.571,3.65-12.541,4.22-18.912,9.724-18.912,15.4,0,7.243,6.771,11.806,18.341,5.219a9.089,9.089,0,0,1,.2,2.31c-5,6.217-31.682,11.692-32.91-5.789C264.4,320.289,289.855,326.22,298.482,319.034Z" transform="translate(-265.719 -267.357)" fill="#dc2f34"/>
        <path id="Path_7" data-name="Path 7" d="M496.58,319.034c-.114,1.112-.457,2.909-.543,3.65,12.513,4.22,18.883,9.724,18.883,15.4,0,7.243-6.742,11.806-18.34,5.219a4.491,4.491,0,0,0-.2,2.253c4.971,6.217,31.682,11.749,32.91-5.732C530.662,320.289,505.236,326.22,496.58,319.034Z" transform="translate(-404.651 -267.357)" fill="#dc2f34"/>
      </svg>